HIERARCHY
ROOT hip
{
  OFFSET 37.6952 44.9515 56.0618
  CHANNELS 6 Xposition Yposition Zposition Zrotation Xrotation Yrotation
  JOINT abdomen
  {
    OFFSET 0 6.09653 0.699602
    CHANNELS 3 Zrotation Xrotation Yrotation
    JOINT chest
    {
      OFFSET 0 2.49857 -0.699602
      CHANNELS 3 Zrotation Xrotation Yrotation
      JOINT rCollar
      {
        OFFSET -1.49915 11.2936 -1.69903
        CHANNELS 3 Zrotation Xrotation Yrotation
        JOINT rShldr
        {
          OFFSET -4.89721 -0.299829 0.799545
          CHANNELS 3 Zrotation Xrotation Yrotation
          JOINT rForeArm
          {
            OFFSET -12.4216 -1.19922 0.931564
            CHANNELS 3 Zrotation Xrotation Yrotation
            JOINT rHand
            {
              OFFSET -9.86568 0.0998477 3.66582
              CHANNELS 3 Zrotation Xrotation Yrotation
              JOINT rRing1
              {
                OFFSET -3.39807 0.399775 0.299829
                CHANNELS 3 Zrotation Xrotation Yrotation
                JOINT rRing2
                {
                  OFFSET -1.29926 -0.199888 0.399772
                  CHANNELS 3 Zrotation Xrotation Yrotation
                  End Site
                  {
                    OFFSET -0.899487 -0.0999402 0.199886
                  }
                }
              }
              JOINT rMid1
              {
                OFFSET -2.99829 0.499717 1.09937
                CHANNELS 3 Zrotation Xrotation Yrotation
                JOINT rMid2
                {
                  OFFSET -1.45827 -0.0999391 0.600149
                  CHANNELS 3 Zrotation Xrotation Yrotation
                  End Site
                  {
                    OFFSET -1.0403 -0.0999474 0.399282
                  }
                }
              }
              JOINT rPinky1
              {
                OFFSET -3.29812 0.0999423 -0.399772
                CHANNELS 3 Zrotation Xrotation Yrotation
                JOINT rPinky2
                {
                  OFFSET -0.899492 -0.0999405 0
                  CHANNELS 3 Zrotation Xrotation Yrotation
                  End Site
                  {
                    OFFSET -0.999429 -0.0999421 0
                  }
                }
              }
              JOINT rIndex1
              {
                OFFSET -2.69847 0.399775 2.09881
                CHANNELS 3 Zrotation Xrotation Yrotation
                JOINT rIndex2
                {
                  OFFSET -1.33823 -0.200883 0.6843
                  CHANNELS 3 Zrotation Xrotation Yrotation
                  End Site
                  {
                    OFFSET -0.760569 0.00099747 0.415074
                  }
                }
              }
              JOINT rThumb1
              {
                OFFSET -0.399773 -0.39977 1.19932
                CHANNELS 3 Zrotation Xrotation Yrotation
                JOINT rThumb2
                {
                  OFFSET -0.998132 0 1.47145
                  CHANNELS 3 Zrotation Xrotation Yrotation
                  End Site
                  {
                    OFFSET -0.977841 -0.278837 0.829828
                  }
                }
              }
            }
          }
        }
      }
      JOINT lCollar
      {
        OFFSET 1.49915 11.2936 -1.69903
        CHANNELS 3 Zrotation Xrotation Yrotation
        JOINT lShldr
        {
          OFFSET 4.89721 -0.299833 0.799545
          CHANNELS 3 Zrotation Xrotation Yrotation
          JOINT lForeArm
          {
            OFFSET 12.4216 -1.19922 0.931564
            CHANNELS 3 Zrotation Xrotation Yrotation
            JOINT lHand
            {
              OFFSET 9.86568 0.0998482 3.66582
              CHANNELS 3 Zrotation Xrotation Yrotation
              JOINT lPinky1
              {
                OFFSET 3.29812 0.0999421 -0.399772
                CHANNELS 3 Zrotation Xrotation Yrotation
                JOINT lPinky2
                {
                  OFFSET 0.899488 -0.0999427 0
                  CHANNELS 3 Zrotation Xrotation Yrotation
                  End Site
                  {
                    OFFSET 0.999427 -0.0999418 0
                  }
                }
              }
              JOINT lThumb1
              {
                OFFSET 0.399772 -0.399773 1.19932
                CHANNELS 3 Zrotation Xrotation Yrotation
                JOINT lThumb2
                {
                  OFFSET 0.99813 0 1.47145
                  CHANNELS 3 Zrotation Xrotation Yrotation
                  End Site
                  {
                    OFFSET 0.97784 -0.27884 0.829828
                  }
                }
              }
              JOINT lRing1
              {
                OFFSET 3.39806 0.399773 0.299829
                CHANNELS 3 Zrotation Xrotation Yrotation
                JOINT lRing2
                {
                  OFFSET 1.29926 -0.199886 0.399772
                  CHANNELS 3 Zrotation Xrotation Yrotation
                  End Site
                  {
                    OFFSET 0.899489 -0.0999425 0.199886
                  }
                }
              }
              JOINT lMid1
              {
                OFFSET 2.99829 0.499714 1.09937
                CHANNELS 3 Zrotation Xrotation Yrotation
                JOINT lMid2
                {
                  OFFSET 1.45827 -0.0999388 0.600149
                  CHANNELS 3 Zrotation Xrotation Yrotation
                  End Site
                  {
                    OFFSET 1.04031 -0.0999473 0.399282
                  }
                }
              }
              JOINT lIndex1
              {
                OFFSET 2.69846 0.399775 2.09881
                CHANNELS 3 Zrotation Xrotation Yrotation
                JOINT lIndex2
                {
                  OFFSET 1.33823 -0.200884 0.6843
                  CHANNELS 3 Zrotation Xrotation Yrotation
                  End Site
                  {
                    OFFSET 0.760567 0.00099574 0.415074
                  }
                }
              }
            }
          }
        }
      }
      JOINT neck
      {
        OFFSET 0 12.4929 -0.499715
        CHANNELS 3 Zrotation Xrotation Yrotation
        JOINT head
        {
          OFFSET 0 3.59795 0.299829
          CHANNELS 3 Zrotation Xrotation Yrotation
          JOINT rightEye
          {
            OFFSET -1.19932 3.69789 3.19818
            CHANNELS 3 Zrotation Xrotation Yrotation
            End Site
            {
              OFFSET 0 0 0
            }
          }
          JOINT leftEye
          {
            OFFSET 1.19932 3.69789 3.19818
            CHANNELS 3 Zrotation Xrotation Yrotation
            End Site
            {
              OFFSET 0 0 0
            }
          }
        }
      }
    }
  }
  JOINT lButtock
  {
    OFFSET 4.19761 -0.599656 -0.299829
    CHANNELS 3 Zrotation Xrotation Yrotation
    JOINT lThigh
    {
      OFFSET 0 -1.49914 0
      CHANNELS 3 Zrotation Xrotation Yrotation
      JOINT lShin
      {
        OFFSET -0.699602 -17.6899 -1.09937
        CHANNELS 3 Zrotation Xrotation Yrotation
        JOINT lFoot
        {
          OFFSET 0.699602 -18.0897 -0.699602
          CHANNELS 3 Zrotation Xrotation Yrotation
          End Site
          {
            OFFSET 0 -2.0988 5.59681
          }
        }
      }
    }
  }
  JOINT rButtock
  {
    OFFSET -4.19761 -0.599656 -0.299829
    CHANNELS 3 Zrotation Xrotation Yrotation
    JOINT rThigh
    {
      OFFSET 0 -1.49915 0
      CHANNELS 3 Zrotation Xrotation Yrotation
      JOINT rShin
      {
        OFFSET 0.699602 -17.6899 -1.09938
        CHANNELS 3 Zrotation Xrotation Yrotation
        JOINT rFoot
        {
          OFFSET -0.699602 -18.0897 -0.699602
          CHANNELS 3 Zrotation Xrotation Yrotation
          End Site
          {
            OFFSET 0 -2.09881 5.59681
          }
        }
      }
    }
  }
}
MOTION
Frames:	8
Frame Time:	0.0333333
18.2318 46.4395 -121.589 4.54057 3.87371 -88.2887 -0.00975517 -0.00975351 -0.00975351 8.3764 -5.4544 -1.59148 3.33387 0.308365 8.96639 70.147 -12.8009 -22.4923 -19.6327 18.9068 36.3186 6.49177 2.38347 -0.35306 -0.0076249 -0.00786884 -0.0111468 2.42193 -0.497593 4.4329 -0.00609391 -0.00835704 -0.0103546 -0.219776 0.404223 1.44943 -0.00959223 -0.00830573 -0.011036 0.629425 -0.00953168 -0.000952463 -0.00535605 -0.00715066 -0.010956 8.61762 -0.00190224 -1.79828 4.37758e-005 -0.045627 -0.00979269 -9.39785 -7.91692 -0.663802 -1.31054 0.38521 -6.57289 -79.7045 8.65152 16.5783 6.84708 9.03625 -36.9461 2.56531 -1.01005 -2.78006 -0.00988691 -0.01101 -0.00833476 -0.629867 -0.00995831 0.00100878 4.52438e-005 -0.045624 -0.00980703 9.41156 -7.94154 0.625638 -0.011865 -0.0109703 -0.00813966 -2.42847 -0.502394 -4.43241 -0.0134423 -0.009699 -0.00912411 0.204766 0.414791 -1.45043 -0.0141269 -0.010082 -0.00835627 -8.62293 -0.0232385 1.79819 -4.81196 5.325 1.91907 10.5924 -28.1968 43.9432 0 0 0 0 0 0 -0.00975517 -0.00983547 -0.00969887 17.6493 -14.4329 23.7192 -0.261411 7.86468 -5.60215 6.51698 33.2753 -0.865619 -0.00975517 -0.00969887 -0.00983547 -4.54306 -1.55178 -28.7925 0.105845 6.39232 2.54165 -4.55364 14.1357 0.190408 
18.0598 46.3366 -120.467 5.00801 3.21749 -84.0068 -0.00975517 -0.00975351 -0.00975351 8.1932 -5.50098 -1.44504 2.67827 0.200866 8.91877 68.42 -14.1117 -21.6144 -20.3752 18.7886 37.3474 5.33027 1.92341 -0.847007 -0.0076249 -0.00786884 -0.0111468 2.42192 -0.497593 4.4329 -0.00609391 -0.00835704 -0.0103546 -0.219776 0.404223 1.44943 -0.00959223 -0.00830573 -0.011036 0.629425 -0.00953168 -0.000952463 -0.00535605 -0.00715066 -0.010956 8.61763 -0.00190224 -1.79828 4.37758e-005 -0.045627 -0.00979269 -9.39785 -7.91692 -0.663802 -1.75754 0.433518 -6.10267 -79.5735 9.19467 16.2916 6.8443 8.68897 -38.0433 2.29799 -0.898033 -2.37065 -0.00988691 -0.01101 -0.00833476 -0.629867 -0.00995831 0.00100878 4.52438e-005 -0.045624 -0.00980703 9.41156 -7.94154 0.625638 -0.011865 -0.0109703 -0.00813966 -2.42847 -0.502394 -4.43241 -0.0134423 -0.009699 -0.00912411 0.204766 0.414791 -1.45043 -0.0141269 -0.010082 -0.00835627 -8.62293 -0.0232385 1.79819 -5.68034 5.35649 1.87273 10.9886 -29.6337 42.7326 0 0 0 0 0 0 -0.00975517 -0.00983547 -0.00969887 14.4454 -15.609 22.7671 -0.203761 7.52471 -4.1733 5.98838 32.0482 -0.67162 -0.00975517 -0.00969887 -0.00983547 -6.72789 -0.820523 -31.1105 0.0798282 6.14042 1.92674 -4.68158 15.3739 0.213778 
17.8941 46.24 -119.265 5.39681 2.2231 -79.3373 -0.00975517 -0.00975351 -0.00975351 7.8191 -5.42182 -1.16368 1.59438 0.0226742 8.77584 66.9009 -14.9387 -21.0869 -20.537 18.3466 38.149 3.629 1.2859 -1.24374 -0.0076249 -0.00786884 -0.0111468 2.42191 -0.497593 4.4329 -0.00609391 -0.00835704 -0.0103546 -0.219776 0.404223 1.44943 -0.00959223 -0.00830573 -0.011036 0.629425 -0.00953168 -0.000952463 -0.00535605 -0.00715066 -0.010956 8.61763 -0.00190224 -1.79828 4.37758e-005 -0.045627 -0.00979269 -9.39785 -7.91692 -0.663802 -1.954 0.445841 -5.64828 -79.6916 9.6658 15.6552 5.95475 8.07926 -38.1577 2.06341 -0.810414 -2.85402 -0.00988691 -0.01101 -0.00833476 -0.629867 -0.00995831 0.00100878 4.52438e-005 -0.045624 -0.00980703 9.41156 -7.94154 0.625638 -0.011865 -0.0109703 -0.00813966 -2.42847 -0.502394 -4.43241 -0.0134423 -0.009699 -0.00912411 0.204766 0.414791 -1.45043 -0.0141269 -0.010082 -0.00835627 -8.62293 -0.0232385 1.79819 -6.77589 5.27398 1.70391 11.3389 -30.9605 40.9612 0 0 0 0 0 0 -0.00975517 -0.00983547 -0.00969887 10.5809 -16.3434 21.3777 -0.2218 7.10769 -4.70116 5.76937 30.9804 -0.587928 -0.00975517 -0.00969887 -0.00983547 -9.24503 0.478081 -33.4177 0.082642 5.90226 2.01708 -4.9879 17.6145 0.277554 
17.7069 46.1333 -118.01 5.73402 0.895587 -75.3537 -0.00975517 -0.00975351 -0.00975351 7.33414 -5.2478 -0.524081 0.432548 -0.154246 9.2455 65.2484 -15.9742 -21.2843 -20.4237 17.4475 39.311 1.60599 0.564102 -1.0154 -0.0076249 -0.00786884 -0.0111468 2.4219 -0.497593 4.4329 -0.00609391 -0.00835704 -0.0103546 -0.219776 0.404223 1.44943 -0.00959223 -0.00830573 -0.011036 0.629425 -0.00953168 -0.000952463 -0.00535605 -0.00715066 -0.010956 8.61763 -0.00190224 -1.79828 4.37758e-005 -0.045627 -0.00979269 -9.39785 -7.91692 -0.663802 -2.55497 0.522178 -5.5837 -79.4556 10.0299 15.4992 4.49676 7.12493 -38.248 2.41801 -0.961767 -3.52456 -0.00988691 -0.01101 -0.00833476 -0.629867 -0.00995831 0.00100878 4.52438e-005 -0.045624 -0.00980703 9.41156 -7.94154 0.625638 -0.011865 -0.0109703 -0.00813966 -2.42847 -0.502394 -4.43241 -0.0134423 -0.009699 -0.00912411 0.204766 0.414791 -1.45043 -0.0141269 -0.010082 -0.00835627 -8.62293 -0.0232385 1.79819 -8.00674 5.15142 1.17873 11.975 -31.8816 39.8193 0 0 0 0 0 0 -0.00975517 -0.00983547 -0.00969887 6.5019 -16.2677 19.5888 -0.27044 6.61087 -6.0479 5.58801 30.6954 -0.52825 -0.00975517 -0.00969887 -0.00983547 -12.1589 2.02157 -35.5857 0.121954 5.83563 2.99337 -5.40364 20.1441 0.379186 
17.4988 45.9913 -116.717 6.05846 -0.721112 -72.3664 -0.00975517 -0.00975351 -0.00975351 6.72461 -5.0658 0.401534 -0.657236 -0.326551 10.0031 63.4082 -16.9732 -21.774 -20.415 16.6468 40.4848 -1.35557 -0.510171 -0.0707622 -0.0076249 -0.00786884 -0.0111468 2.42189 -0.497593 4.4329 -0.00609391 -0.00835704 -0.0103546 -0.219776 0.404223 1.44943 -0.00959223 -0.00830573 -0.011036 0.629425 -0.00953168 -0.000952463 -0.00535605 -0.00715066 -0.010956 8.61763 -0.00190224 -1.79828 4.37758e-005 -0.045627 -0.00979269 -9.39785 -7.91692 -0.663802 -3.20269 0.587462 -5.12975 -79.3487 11.1424 15.7812 3.11152 6.07667 -39.0713 2.53139 -1.00385 -3.26052 -0.00988691 -0.01101 -0.00833476 -0.629867 -0.00995831 0.00100878 4.52438e-005 -0.045624 -0.00980703 9.41156 -7.94154 0.625638 -0.011865 -0.0109703 -0.00813966 -2.42847 -0.502394 -4.43241 -0.0134423 -0.009699 -0.00912411 0.204766 0.414791 -1.45043 -0.0141269 -0.010082 -0.00835627 -8.62293 -0.0232385 1.79819 -9.26045 5.09143 0.375264 12.5185 -32.6656 39.6307 0 0 0 0 0 0 -0.00975517 -0.00983547 -0.00969887 2.36831 -15.3555 17.5585 -0.305371 5.98127 -7.07657 5.23833 30.2523 -0.416656 -0.00975517 -0.00969887 -0.00983547 -15.4186 3.58669 -37.3743 0.124814 5.79786 3.06103 -5.78728 23.1062 0.49721 
17.284 45.8373 -115.387 6.21651 -1.93891 -70.3329 -0.00975517 -0.00975351 -0.00975351 6.50682 -4.90554 1.36935 -1.53727 -0.476466 10.5126 61.8569 -17.4215 -22.013 -20.3379 15.733 41.7953 -4.07207 -1.56558 1.48705 -0.0076249 -0.00786884 -0.0111468 2.42188 -0.497593 4.4329 -0.00609391 -0.00835704 -0.0103546 -0.219776 0.404223 1.44943 -0.00959223 -0.00830573 -0.011036 0.629425 -0.00953168 -0.000952463 -0.00535605 -0.00715066 -0.010956 8.61763 -0.00190224 -1.79828 4.37758e-005 -0.045627 -0.00979269 -9.39785 -7.91692 -0.663802 -3.52186 0.588794 -4.26362 -79.4256 12.7762 16.0813 1.92659 5.27349 -39.5489 1.12587 -0.435855 -3.33203 -0.00988691 -0.01101 -0.00833476 -0.629867 -0.00995831 0.00100878 4.52438e-005 -0.045624 -0.00980703 9.41156 -7.94154 0.625638 -0.011865 -0.0109703 -0.00813966 -2.42847 -0.502394 -4.43241 -0.0134423 -0.009699 -0.00912411 0.204766 0.414791 -1.45043 -0.0141269 -0.010082 -0.00835627 -8.62293 -0.0232385 1.79819 -10.3592 5.0973 -0.471431 13.7534 -32.5313 40.5663 0 0 0 0 0 0 -0.00975517 -0.00983547 -0.00969887 -1.11264 -13.9973 15.4205 -0.282987 5.29747 -6.56801 4.80373 29.5136 -0.281297 -0.00975517 -0.00969887 -0.00983547 -18.1514 4.84433 -38.4985 0.0706167 5.66403 1.73834 -6.36044 27.0299 0.703328 
17.0931 45.733 -114.113 5.86117 -2.71866 -68.2731 -0.00975517 -0.00975351 -0.00975351 6.66116 -4.54274 1.82005 -1.95826 -0.54819 10.0316 60.9767 -16.4858 -21.8928 -20.9208 14.5983 44.1606 -6.51988 -2.60306 3.11478 -0.0076249 -0.00786884 -0.0111468 2.42187 -0.497593 4.4329 -0.00609391 -0.00835704 -0.0103546 -0.219776 0.404223 1.44943 -0.00959223 -0.00830573 -0.011036 0.629425 -0.00953168 -0.000952463 -0.00535605 -0.00715066 -0.010956 8.61763 -0.00190224 -1.79828 4.37758e-005 -0.045627 -0.00979269 -9.39785 -7.91692 -0.663802 -3.91323 0.628346 -4.12052 -79.2675 13.4867 16.6441 0.684294 4.49343 -39.8685 0.173298 -0.0476137 -3.62589 -0.00988691 -0.01101 -0.00833476 -0.629867 -0.00995831 0.00100878 4.52438e-005 -0.045624 -0.00980703 9.41156 -7.94154 0.625638 -0.011865 -0.0109703 -0.00813966 -2.42847 -0.502394 -4.43241 -0.0134423 -0.009699 -0.00912411 0.204766 0.414791 -1.45043 -0.0141269 -0.010082 -0.00835627 -8.62293 -0.0232385 1.79819 -11.2603 4.8334 -0.866174 14.6341 -31.2365 41.0799 0 0 0 0 0 0 -0.00975517 -0.00983547 -0.00969887 -3.8171 -12.381 13.3013 -0.253533 5.02768 -5.81817 4.41013 28.9055 -0.163762 -0.00975517 -0.00969887 -0.00983547 -19.8149 6.0435 -38.5687 -0.0696726 5.66912 -1.58877 -7.62639 30.6981 1.16003 
16.9122 45.6806 -112.953 5.70363 -3.37237 -66.3316 -0.00975517 -0.00975351 -0.00975351 6.59068 -4.19665 1.80728 -2.28421 -0.600652 9.57524 60.9895 -15.419 -21.3003 -20.4405 13.252 45.8924 -9.34973 -3.91005 5.03554 -0.0076249 -0.00786884 -0.0111468 2.42187 -0.497593 4.4329 -0.00609391 -0.00835704 -0.0103546 -0.219776 0.404223 1.44943 -0.00959223 -0.00830573 -0.011036 0.629425 -0.00953168 -0.000952463 -0.00535605 -0.00715066 -0.010956 8.61763 -0.00190224 -1.79828 4.37758e-005 -0.045627 -0.00979269 -9.39785 -7.91692 -0.663802 -4.03002 0.673949 -4.764 -79.3143 13.4409 17.1495 -0.373937 3.87298 -39.9342 -0.386541 0.184697 -3.89964 -0.00988691 -0.01101 -0.00833476 -0.629867 -0.00995831 0.00100878 4.52438e-005 -0.045624 -0.00980703 9.41156 -7.94154 0.625638 -0.011865 -0.0109703 -0.00813966 -2.42847 -0.502394 -4.43241 -0.0134423 -0.009699 -0.00912411 0.204766 0.414791 -1.45043 -0.0141269 -0.010082 -0.00835627 -8.62293 -0.0232385 1.79819 -11.8811 4.49782 -0.839747 15.3202 -29.878 41.9766 0 0 0 0 0 0 -0.00975517 -0.00983547 -0.00969887 -6.20685 -11.0446 11.2051 -0.234185 5.02947 -5.30996 4.21191 28.0883 -0.107266 -0.00975517 -0.00969887 -0.00983547 -20.6646 6.52403 -37.4082 -0.125241 5.85651 -2.8734 -9.89765 33.8063 2.0215 
